<?xml version="1.0" encoding="utf-8"?>
<!-- Generator: Adobe Illustrator 23.0.0, SVG Export Plug-In . SVG Version: 6.00 Build 0)  -->
<svg version="1.1" id="Layer_1" xmlns="http://www.w3.org/2000/svg" xmlns:xlink="http://www.w3.org/1999/xlink" x="0px" y="0px"
	 viewBox="0 0 2000 2000" style="enable-background:new 0 0 2000 2000;" xml:space="preserve">
<style type="text/css">
	.st0{fill:#E34E26;}
	.st1{fill:#EF662A;}
	.st2{fill:#FFFFFF;}
	.st3{fill:#EBEBEB;}
</style>
<g id="Logo_artwork">
</g>
<g id="Guides_to_delete">
	<g>
		<polygon class="st0" points="279.2,1800 118.8,0 1881.2,0 1720.6,1800.1 999.6,2000 		"/>
		<polygon class="st1" points="1000,147.1 1000,1847.1 1583,1685.5 1720.4,147.1 		"/>
		<polygon class="st2" points="447.1,367.9 506.6,1035.5 1271.8,1035.5 1246.1,1321.9 999.7,1388.5 753.8,1322 737.4,1138.1 
			515.8,1138.1 547.5,1492.5 999.7,1618.1 1452.4,1492.5 1513.1,814.8 708.5,814.8 688.3,588.7 1532.5,588.7 1533.1,588.7 
			1552.9,367.9 		"/>
		<g>
			<polygon class="st3" points="1000,367.9 447.1,367.9 506.6,1035.5 1000,1035.5 1000,814.8 708.5,814.8 688.3,588.7 1000,588.7 
							"/>
			<polygon class="st3" points="1000,1388.4 999.7,1388.5 753.8,1322 737.4,1138.1 515.8,1138.1 547.5,1492.5 999.7,1618.1 
				1000,1618 			"/>
		</g>
	</g>
</g>
</svg>
