<?xml version="1.0" encoding="utf-8"?>
<!-- Generator: Adobe Illustrator 23.0.0, SVG Export Plug-In . SVG Version: 6.00 Build 0)  -->
<svg version="1.1" id="Layer_1" xmlns="http://www.w3.org/2000/svg" xmlns:xlink="http://www.w3.org/1999/xlink" x="0px" y="0px"
	 viewBox="0 0 1588 1194.8" style="enable-background:new 0 0 1588 1194.8;" xml:space="preserve">
<style type="text/css">
	.st0{clip-path:url(#SVGID_2_);}
	.st1{clip-path:url(#SVGID_4_);}
	.st2{fill-rule:evenodd;clip-rule:evenodd;}
</style>
<g>
	<defs>
		<rect id="SVGID_1_" y="0.3" width="1588" height="1194.5"/>
	</defs>
	<clipPath id="SVGID_2_">
		<use xlink:href="#SVGID_1_"  style="overflow:visible;"/>
	</clipPath>
	<g class="st0">
		<g>
			<defs>
				<path id="SVGID_3_" d="M1326.1,744c2.4,3.7,1.4,9.7-1.6,12.7c-12,10-24,20-29,34c-6,20-16,37-25.5,55.3c-1.5,2.9-3,5.8-4.6,8.6
					c-3.1,5.7-6.4,11.4-9.9,17.1c-9,15-11,33-19,50c-2,5-4,12-9,13c-8.5,2-16,5-22.6,9.1c-2.3,1.4-4.4,3-6.5,4.7
					c-9.9,8.2-16.9,18.2-24.9,27.2c-18,22-25,57-53,64c-16,4-32,8-46.2,18c-3.2,2-6.5,4-9.8,6.1c-12.7,7.8-25.7,15.1-39,21.8
					c-3.3,1.7-6.7,3.3-10.1,4.9c-23.9,10-47.8,19-71.5,28.7c-3.4,1.4-6.8,2.8-10.2,4.2c-25.3,10.3-49.3,29.3-76.3,28.3
					c-3.8-0.1-7.6-0.3-11.6-0.4c-7.4,0.4-15.4,0.4-22.4,0.4c-38.1,2.5-79,21-116.7,26c-3.8,0.5-7.5,0.9-11.2,1.1
					c-49.7-7-98.9-20.1-148-35.2c-3.5-1.1-7-2.2-10.5-3.3c-31.5-9.7-65.5-13.7-91.5-34.7c-27-22-53-45-66-76
					c-7.7-18-17.8-36.7-25.9-56c-1.4-3.2-2.7-6.4-4.2-9.8c-3.9-6.2-5.9-13.2-10.9-19.2c-28-36-59-67-75-109c1,3,3,4,5,6
					c-4-10-10-20-8-31c1-3,5-3,8-2c19,8,37,21,58,19c8,0,11-11,5-15c-44-24-91-65-73-121c9-30,42-67,12-93c-17-14-29-32-25.8-53.2
					c0.4-3.8,0.9-7.6,1.4-11.4c8.3-64.6,28-125.6,57.1-181c1.7-3.3,3.4-6.5,5-10c2.3-5.4,3.3-11.4,4.3-16.4c3-31-9-63,7-91
					c1.4-2.5,2.8-5,4.4-7.5c1.6-2.6,3.3-5.1,5.1-7.7c4.5-7.8,10.5-13.8,17.5-19.8c16-13,29-26,46-38c5-4,11,8,18,3c13-9,14-31,26-33
					c22-4,46,7,67.2-9.4c3.2-2,6.4-4,9.7-5.9c45.4-27.1,94.3-46.7,146.2-49.6c29-2,57-8,86-11c34-2,71-23,103-8
					c13,6,21,21,35.8,24.2c3,0.9,6,1.8,9.2,2.3c4,0.8,8,1.7,12,2.7c33.8,7.9,66.4,19,97.4,33c3.5,1.6,6.9,3.1,10.5,4.8
					c10.8,4,21.7,7.7,32.5,11.5c3.6,1.3,7.2,2.6,10.8,3.9c48,16.3,91.4,43,127.8,77.4c2.8,2.6,5.5,5.3,8.3,8.1
					c59.9,62.2,91.9,145.2,116.9,227.2c1.1,3.8,2,7.5,2.8,11.3c8.2,68.7,21.2,139.7,14.2,209.7c-1,9,3,19,10,24c2,2,5-2,7-5
					c-2,14-18,13-24,21c-7,11,1,25,6.2,36.8C1325.8,742.4,1326,743.2,1326.1,744z"/>
			</defs>
			<clipPath id="SVGID_4_">
				<use xlink:href="#SVGID_3_"  style="overflow:visible;"/>
			</clipPath>
			<g class="st1">
				
					<image style="overflow:visible;enable-background:new    ;" width="3024" height="4032" xlink:href="D5391C07.png"  transform="matrix(0.4412 0 0 0.4412 92.7301 -347.9063)">
				</image>
			</g>
		</g>
		<g>
			<path d="M23.1,513c-3.2,13.3-5,25.5-5.2,38c-0.7,37.6,5.5,74.7,8.6,112c0.5,6.1,0.8,12.3,1.2,18.4c0.3,3.6-1.2,5.8-4.8,6.4
				c-3.5,0.7-5.4-1.4-6.5-4.2c-1.8-4.3-1.8-8.8-1.7-13.3c0.5-14.5-3.2-28.4-5.4-42.5c-4-26-7.8-52.1-8.9-78.4
				c-0.5-10.8-0.9-21.7,1.8-32.3c0.6-2.4,1.2-4.8,2.2-7.2c3.8-9.2,10-11.9,19.2-7.9c10.5,4.5,18.5,12.4,26.4,20.3
				c25.7,26.2,48.3,55.1,72.1,83c7,8.2,14.7,15.7,21.9,23.4c1-3.6-0.1-8-0.7-12.3c-2.8-22.5-8.1-44.6-10.4-67.1
				c-1.6-15.5-1.9-30.9,2.6-46.1c2.5-8.4,6.7-15.9,12.3-22.6c2.4-2.8,4.9-4,8.7-3.5c9.6,1.4,17.6,5.9,24.9,11.9
				c13.2,10.8,22.6,24.9,32.8,38.2c5.4,7,10.6,14.1,17.1,20.2c2.7,2.5,5.4,4.8,9.1,6.7c0.6-4.2-0.5-7.8-0.9-11.3
				c-2.8-22.5-6.6-44.8-6.4-67.6c0-5.6,0.7-11,2.8-16.1c2.5-6.3,7.2-8.7,13.9-7.8c7.6,1.1,14.1,4.9,20.5,8.8
				c17.7,10.8,33.7,23.8,49.8,36.8c1.3,1,2.5,3.1,4,2.5c2-0.8,1.2-3.3,1.2-4.9c-0.2-7.5-0.6-15-0.9-22.4c-0.3-5.8-0.4-11.7,1.7-17.3
				c2.2-5.9,6.5-9,12.8-8.1c11.1,1.7,20.9,6.6,29.5,13.8c1.1,0.9,2.6,2.1,1.5,3.8c-0.8,1.3-2.4,0.9-3.7,0.6
				c-5.4-1.2-10.4-3.4-15.5-5.6c-6.6-2.9-9.1-1.4-9.8,5.9c-1.1,10.4,0.6,20.6,1.4,30.9c1,13.4-7.5,20.4-20.5,16.6
				c-6.2-1.8-11.5-5.2-16.6-9.1c-10.8-8.1-20.2-17.9-30.1-27c-3.9-3.6-7.9-7.2-12.4-10c-7.4-4.6-12.1-2.6-13.2,6.1
				c-1.5,11-0.3,22,1.4,32.8c3.1,19.7,6.8,39.4,6.6,59.5c0,3.9-0.5,7.7-1.8,11.3c-1.9,5.7-5.7,7.1-10.9,4.2
				c-4.7-2.6-8.5-6.4-12.1-10.4c-14.5-16-26.5-33.8-39.9-50.6c-7-8.7-13.8-17.6-22.6-24.6c-10.4-8.2-15.9-6.1-18.3,6.9
				c-2.8,15.1-0.4,30.2,0.6,45.3c1.8,26.4,6.1,52.5,10.7,78.6c0.9,5.4,1.1,10.9,0.5,16.4c-0.4,3.4-1.2,6.6-3,9.5
				c-3.3,5.3-7.7,7-13.6,4.9c-13.7-5-22.7-15.4-30.8-26.8c-6.6-9.2-12.3-19.1-19.6-27.7c-4.4-5.2-9.1-10.2-13.7-15.2
				c-20-21.7-37-45.9-55.8-68.6C26,516.7,24.9,515.2,23.1,513z"/>
		</g>
		<g>
			<path d="M271.1,124.9c2-9.1,4.3-17.2,7.3-25.3c9.1-24.2,21-46.7,31.6-70c1.8-3.8,3.4-7.7,5.1-11.6c1-2.2,0.9-3.9-0.4-5
				s-2.6-0.1-3.8,1.4c-1.8,2.4-3,5.3-4,8.2c-3.4,9.3-8.4,17.6-12.9,26.2c-8.2,15.9-16.3,31.8-23.3,48.4c-2.9,6.8-5.8,13.7-7.3,21
				c-0.4,1.7-0.7,3.3-0.9,5c-0.7,6.6,1.3,9.5,6.1,8.8c5.6-0.9,11-4.3,16.3-7.9c17.5-11.8,34.3-25.9,51.3-39.2
				c5-3.9,10.1-7.2,15.1-10.8c-0.5,2.5-2.1,5.1-3.4,7.8c-6.8,13.8-14.6,26.9-21.2,40.9c-4.5,9.6-8.5,19.4-10.4,30
				c-1,5.9-1.1,11.5-0.4,16.9c0.3,2.3,1.1,3.5,2.8,3.9c4.4,1,8.9-0.4,13.5-2.8c8.3-4.4,15.8-11.6,23.5-18.1c4-3.4,8-7,12.3-9.6
				c1.8-1.1,3.5-2.1,5.5-2.5c-0.8,2.8-2.1,4.9-3.2,7.1c-6.8,13.8-14,27.4-19.6,42c-1.4,3.6-2.4,7.2-2.9,10.9c-0.5,4.5,0.9,7,4,7.6
				c3.5,0.8,7.2-0.4,10.9-1.6c10.2-3.5,20.3-8.8,30.3-13.9c0.8-0.4,1.8-1.5,2.3-0.8c0.6,0.9-0.3,2.3-0.7,3.4c-1.9,4.8-4,9.4-6,14.2
				c-1.6,3.7-3.1,7.4-3.6,11.4c-0.6,4.2,0.5,7,3.4,7.6c5.1,1.1,10.5-0.2,16-3.1c0.7-0.4,1.6-0.8,1.6-2.1c0-1-0.8-1.1-1.4-1.1
				c-2.6-0.3-5.3,0.2-8,0.6c-3.5,0.6-4.2-0.9-2.7-5.7c2.1-6.8,5.4-13.1,8.3-19.5c3.8-8.4,1.9-14.5-4.6-14.6c-3.1,0-6.2,1.1-9.3,2.6
				c-6.6,3.1-13,7.5-19.5,11.5c-2.6,1.6-5.1,3.1-7.8,4c-4.3,1.5-5.8-0.7-4.1-6.4c2.1-7.3,5.4-14.1,8.8-20.7
				c6.3-12,12.7-23.9,17.7-36.8c1-2.5,1.7-5,2.1-7.6c0.6-4-0.7-5.6-3.6-4.8c-2.7,0.8-5.2,2.5-7.7,4.3c-10.1,7.4-19.7,16.5-29.6,24.7
				c-5.1,4.2-10.3,8.6-15.7,11.4c-6.5,3.2-8.3,0.9-6-8c2.6-10.2,7.4-19.4,11.6-28.8c7.4-16.6,15.7-32.4,24.1-48.2
				c1.8-3.3,3.2-6.8,4.3-10.4c0.7-2.2,1.1-4.4,1.1-6.6c0-4-1.5-6-4.5-5.7c-7,0.5-13.5,5.5-19.8,11.2c-5.1,4.6-10,9.8-15.3,14
				c-3.2,2.5-6.4,4.7-9.6,7.1c-13.9,10.1-27.2,22.2-40.8,33.1C273.3,123.1,272.4,123.8,271.1,124.9z"/>
		</g>
		<g>
			<path d="M1230.3,1034.7c-4-0.4-7.8,0.8-11.7,1.3c-4,0.5-8,1.3-12-0.1c-2.2-0.8-3.8-2.7-3.7-5.1c0.2-5.7,2.5-10.7,5.2-15.6
				c0.2-0.4,0.7-0.6,1-0.9c0.3-0.4,0.7-0.6,1.2-0.4c0.5,0.2,0.5,0.7,0.6,1.1c0.1,1.2,0,2.4-0.5,3.4c-1,2.1-1.3,4.4-2,6.7
				c-0.6,2.1,0.3,3.4,2.6,3.5c3.2,0.2,6.3-0.5,9.4-1c3.3-0.5,6.5-1.3,9.9-1.6c3.4-0.3,6.4,2.7,6.7,6.2c0.3,4.3-1.4,8-3.5,11.6
				c-2.8,4.7-6.2,9-9.5,13.3c-2.3,3-4.8,5.9-6.6,9.2c-0.2,0.4-0.6,0.8-0.8,1.3c-1.6,3.9-0.6,5.7,3.7,6c4.6,0.3,9.1-0.6,13.6-1.6
				c4-0.9,8-2.1,12-3c4.6-1.1,9.2-2.2,13.9-3c3.5-0.6,7-1.2,10.5-0.9c1.8,0.2,3.5,0.7,4.4,2.4c0.8,1.7-0.1,3.4-1.1,4.9
				c-3.3,4.8-7.6,8.8-11.8,12.9c-4.8,4.7-9.9,9.1-14.7,13.8c-3.7,3.7-7.5,7.3-10.6,11.6c-0.8,1-1.5,2.1-2.1,3.2
				c-2,3.6-0.1,6.7,4.1,6.9c2.9,0.1,5.9,0.2,8.8-0.1c5.2-0.5,10.4-1.7,15.6-2.6c3.5-0.6,7-1.7,10.6-1.9c3.5-0.2,7.1-1.3,10.5-2.3
				c3.7-1.1,7.4-2.3,11.1-3.3c2.9-0.8,5.8-1.6,8.8-2.1c3.5-0.6,7.1-0.8,10.5,0.8c2.4,1.1,3.3,3.4,2.7,5.8c-1.3,6.4-5.2,11.2-10,15.4
				c-5.1,4.5-10.4,8.7-15.3,13.3c-2.5,2.3-4.4,5.1-6.8,7.6c-4.1,4.5-8.3,8.9-12.7,13.1c-4.2,4-8.4,7.9-12.5,12
				c-2.5,2.5-4.9,5.2-7.3,7.7c3.8,1.7,8.2,0.8,12.5,1c6.1,0.2,12.2-0.7,18.3-1.6c5.3-0.8,10.5-1.6,15.8-2.6
				c5.9-1.2,11.8-2.7,17.7-3.9c4.9-0.9,9.8-2.3,14.8-2.7c1.6-0.1,3.1-0.8,4.7-0.8c1.7,0,2.1,1.2,2.5,2.3c0.5,1.1,0.1,2.1-1,2.8
				c-1.2,0.8-2.4,1.5-3.9,1.6c-2.9,0.1-5.7,0.7-8.6,1.1c-3.8,0.5-7.5,1.7-11.2,2.9c-1.8,0.6-3.7,1-5.6,1.5
				c-5.6,1.4-11.2,2.9-16.8,4.1c-6.4,1.3-12.7,2.6-19.1,3.6c-6.1,0.9-12.1,1.8-18.2,1c-2.2-0.3-4.5-0.6-6.3-2.1
				c-2-1.7-2.6-3.6-2.1-6.3c0.9-4.9,3.9-8.5,6.6-12.3c4.9-6.9,10.9-12.7,16.6-18.9c6-6.5,12.3-12.7,18.5-19
				c5.2-5.3,10.4-10.6,15.6-16c0.3-0.3,0.7-0.6,0.5-1.2c-0.2-0.5-0.8-0.4-1.2-0.3c-2.3,0.4-4.6,0.6-6.8,1.3
				c-6.6,1.9-13.3,3.6-19.9,5.5c-4.5,1.3-9.1,2.4-13.7,3.1c-4.7,0.7-9.3,1.5-14,1.4c-5.4-0.1-10.5-1.2-15.3-3.6
				c-1.8-0.9-3.3-2.2-4.9-3.4c-0.7-0.5-0.6-1.2-0.6-1.9c-0.1-6.4,2.7-11.6,6.4-16.6c4.4-5.7,9.8-10.4,15-15.2
				c3.6-3.3,7.1-6.7,10.2-10.4c0.9-1,1.5-2.2,2.2-3.4c0.2-0.3,0.3-0.7,0.2-0.9c-0.2-0.5-0.7-0.3-1-0.2c-2,0.4-4,0.9-6,1.4
				c-7.1,1.7-14.2,3.5-21.5,4.7c-5.3,0.9-10.5,1.9-15.9,1.4c-1.5-0.1-3-0.4-4.4-1.3c-2.4-1.6-2.9-3.6-2.7-6.3
				c0.3-4.1,2.1-7.7,3.8-11.3c1.6-3.3,3.4-6.5,5.3-9.6c3.2-5.2,6.4-10.5,10-15.5C1229.5,1036.7,1230.1,1035.8,1230.3,1034.7z"/>
		</g>
		<path class="st2" d="M363.5,846.1c-1.5,4.4-7.4,8.8-10.5,12.1c-8.4,9-14.9,18.2-21.4,28.5c-10.5,16.5-20.1,35.8-24.5,55.2
			c-11.2,3.1-7.3-20-5.8-24.5c3.8-11,8.2-21.8,13.9-31.8c5.3-9.3,12.5-19.3,19.8-27c3-3.2,6.6-7.1,9.9-10c2.9-2.6,9.5-9,13.1-9.6
			C362.4,838.4,365,841.6,363.5,846.1z"/>
		<path class="st2" d="M643.5,366.1c-1.5,4.4-7.4,8.8-10.5,12.1c-8.4,9-14.8,18.2-21.4,28.5c-10.5,16.5-20.2,35.8-24.5,55.2
			c-11.2,3.1-7.3-20-5.8-24.5c3.8-11,8.2-21.8,13.9-31.8c5.3-9.3,12.5-19.3,19.8-27c3-3.2,6.6-7.1,9.9-10c2.9-2.6,9.5-9,13.1-9.6
			C642.4,358.3,645,361.6,643.5,366.1z"/>
		<path class="st2" d="M1117.6,832.8c12.3,6.4,23.3,17,32.9,26.8c8.7,8.9,17.6,19,24.3,29.5c1.5,1.6,2.8,3.3,4,5l1.1,1.6
			c-0.9-1.3-1.7-2.7-2.6-4c1.4,0.9,2.3,2.2,2.6,3.9c1.7,2.6,3.3,5.3,5.1,7.9c2.5,3.8,8.5,10.9,8.1,15.9c-0.6,7.6-7.7-0.5-9.6-2.7
			c-4.7-5.6-8.9-11.7-13.5-17.4c-16.1-20-34.7-41.6-56.3-55.8c-2.1-1.3-6-4.5-8.4-4.8c-1.7-0.2-1.8,1.4-4.1,0.5
			c-2.4-0.8-11-9.6-10.1-13C1092.7,819.1,1113.4,830.6,1117.6,832.8z"/>
		<path class="st2" d="M315.9,838.1c7.8,5.5-20.9,18.8-24.8,21.3c-6.9,4.4-13.8,8.6-20.5,13.3c-7.1,4.9-13.8,10.7-21.1,15.1
			c-9.1-10.7,16.6-26.4,24-30.4c7.6-4.1,14.8-8.7,22.6-12.2C300,843.5,312,835.3,315.9,838.1z"/>
		<path class="st2" d="M1153.9,824.4c13.1,9.7,25.7,19.3,35.3,32.8c3.3,4.7,8.5,12,9.5,17.8c1.6,9.5-5.8,5.1-9,0.1
			c-9.6-11.8-19.7-23.3-30.7-33.8c-5.1-4.9-12.8-10.2-15.8-16.8C1138.6,814.7,1151,822.2,1153.9,824.4z"/>
		<path class="st2" d="M1199,828.6c4,2.8,12.7,10.2,12.9,15.6c0.2,7.2-6,3.2-9.4,0.3c-5.3-4.7-9.2-10.6-15.1-14.6
			C1185.9,820.7,1193.9,825.1,1199,828.6z"/>
		<path class="st2" d="M282.3,814.4c0,4.8-7.4,6.3-11.4,8.3c-2.9,1.5-6.4,5.8-8.3,2.3C259.5,819.2,278.4,814.4,282.3,814.4z"/>
		<path class="st2" d="M599.3,345.8c0,4.8-7.4,6.3-11.4,8.3c-2.9,1.5-6.4,5.8-8.3,2.4C576.6,350.7,595.5,345.8,599.3,345.8z"/>
		<g>
			<path d="M1114.9,118.3c-4.9-1.4-9,0.2-12.8,2.2c-8.4,4.5-14.5,11.5-20,19.2c-0.9,1.2-1.3,2.6-0.9,4.1c2.5,11,1,22.2,1.5,33.3
				c0.2,5.3,0.5,10.6,1.3,15.8c2.2,14.8,10.9,20.4,26,17c7.9-1.8,15.1-5.4,22.2-9.2c11-5.8,21.7-12.1,33.4-16.4
				c7.2-2.6,14.6-4.7,22.5-2.6c11.3,3.1,17.1,11.9,15.3,23.5c-0.5,3.3-1.3,6.4-1.8,9.7c-0.8,4.6,0.8,6.3,5.3,5.2
				c4.9-1.2,9.8-2.9,14.6-4.6c18.3-6.3,37.1-10.5,56.1-14c10.9-2.1,22-3.8,32.4-8c1.7-0.7,3.3-1.6,4.7-2.7
				c6.2-4.6,12.9-8.6,18.2-14.1c4.7-4.9,8.7-3.1,13.2-0.9c3.2,1.5,1.2,3.8,0.3,5.6c-5.8,11.4-14.4,20.6-24.1,28.8
				c-1.4,1.2-3,2.1-4.3,3.4c-8.4,8.2-19.8,9.3-30.3,12.6c-8.8,2.8-17.9,4.8-27,6.8c-4.3,0.9-8.7,1.1-12.9,2.7
				c-6.4,2.5-13.6,2.7-20.1,5.4c-9.1,3.9-18.8,6.1-28.7,6.4c-6.8,0.2-12.6-1.8-16.8-7.4c-3-4-4.5-8.2-2.6-13.3
				c1.6-4.4,3.1-9,3.2-13.8c0.1-6.8-2.6-8.9-9-7.4c-11.5,2.7-22,7.9-32.6,12.7c-12.2,5.5-24.3,10.7-38,11.6
				c-8.2,0.6-14.5-2.5-20.3-7.7c-10.7-9.7-17.1-22.1-22.1-35.5c-1.4-3.8,0.3-7.2,0.8-10.8c0.7-4,1.2-8-0.1-11.9
				c-1.6-5-2-10.1-0.4-15.1c4.1-12.9,7.1-26.4,14.4-38.2c8.5-13.8,18.3-17.8,33.8-13.5c8.1,2.2,15.7,6,23.3,9.5
				c3,1.4,3.9,3.6,3.6,6.6c-0.3,3.9-1.3,7.7-3.2,11c-5.8,10.5-8.2,22.3-13.2,33c-0.6,1.3-1,2.8-1.4,4.1c-0.4,1.4-1.4,3-0.1,4.1
				c1.4,1.1,2.7-0.4,3.9-1.1c16.4-8.9,33.1-17,50.1-24.7c19.7-8.9,38.9-7.7,58.3,0.7c7,3,9.6,7.9,9.6,14.9c0,5.8-1,11.6-0.1,17.5
				c1,6.1,2,6.9,7,3.7c18.3-11.9,36-24.3,49.2-42.1c5.6-7.5,12.6-13.7,21-18.2c7.6-4.1,23.2-1.1,28.7,5.5c1.9,2.2,2.7,4.6,2.1,7.6
				c-0.9,4.3-3.1,6.4-7.2,3.7c-3.8-2.6-5.5-0.6-8.7,1.6c-4.9,3.6-8.8,8.4-14.3,11.3c-0.8,0.4-1.6,1-2,1.7
				c-7.8,12-18.8,21.1-28.4,31.4c-4.4,4.7-11,6.7-15.6,11c-5.2,4.9-11.2,6.7-17.6,8c-13,2.6-24.6-0.9-34.7-9.3
				c-2.7-2.2-3-5.1-3.1-8.4c-0.3-8.2,2.1-16.3,0.6-24.6c-0.7-4-2.2-5.2-6-5c-9.6,0.5-18.7,2-27.4,6.6c-18.7,9.8-37.6,19.1-56.6,28.4
				c-7.4,3.6-24.5,0.3-30.4-5.3c-2.3-2.2-3-4.8-2.9-7.9c0.2-10.9,3.6-20.9,8.2-30.4C1106.1,134.2,1110.5,126.4,1114.9,118.3z"/>
			<path d="M1346.1,257.1c-2.6,2.2-5.8,4.9-8.9,7.7c-17.8,15.8-39,20.8-62.1,19.6c-4.9-0.3-9.2-3.4-14.3-3.2
				c-17,0.7-33.3,3.8-47.8,13.5c-11.4,7.6-22.9,15.1-34.4,22.5c-4.9,3.2-10.2,5.7-15.8,7.6c-15.6,5.1-26.7-2.7-27-19.2
				c-0.1-6.5,0.8-13.1,1.2-19.7c0.3-4,0.8-8,1-12c0.6-12.5-1-13.9-13.7-12.1c-7,1-13.3,4-19.2,7.8c-8.7,5.5-16.3,12.3-23.6,19.6
				c-5.4,5.4-10.7,11-16.8,15.7c-1.1,0.9-2.5,2.5-3.8,1.4c-1.7-1.4,0.1-3,0.9-4.3c7.9-11.7,16.7-22.7,27.6-31.8
				c1.7-1.4,3.4-2.8,5.3-4c8.4-5,15.3-11.9,23.2-17.5c9.9-7,20.8-7.6,31.8-3.7c6.3,2.2,9.8,9.9,8.8,19.1c-1.1,10.2-1,20.3-0.5,30.5
				c0.3,6.3,2.9,8.1,8.9,5.7c11.4-4.6,20.3-12.8,29.6-20.6c11.5-9.7,23.8-17.4,38.6-22.1c18.7-6,37.1-7.7,56.3-4.6
				c14.7,2.4,27-4.3,39.2-11.2c6.3-3.6,11.2-9.2,18.1-12.1c3.6-1.5,6.2-1.6,9,0.9c5.4,4.6,6.8,10.6,5.9,17.3
				c-3.4,26-16,47.5-33.2,66.6c-9.2,10.2-19.3,19.5-32,25.4c-8,3.8-16.3,3.9-25.1,3.7c-10.1-0.2-17.5-4.8-25.2-10.2
				c-10.3-7.3-19.5-5.5-27.2,4.6c-1.2,1.6-2.4,3.2-3.4,5c-8.7,15.1-22.2,24.7-36.8,33.4c-12.8,7.7-26.3,9.9-40.9,10.4
				c-11.6,0.4-22.1-2.1-31.9-7.8c-6.7-3.9-13.5-7.2-21-9.2c-6.1-1.6-13.7-14.3-13.7-21.5c-0.1-14.8,6.8-25.8,18.2-34.4
				c1-0.8,2.1-1.5,3.3-2c2-0.9,4.2-2.3,6-0.2c1.8,2-0.3,3.8-1.3,5.3c-5.2,7.6-6.1,15.9-3.6,24.6c1,3.4,2.8,6.6,6.1,8.2
				c9.9,5,19.6,10.5,29.9,14.2c24.3,8.8,53.1-2,66.6-23.9c8.8-14.3,21-25.2,35.6-33.4c13.9-7.8,28.2-5,40.9,7.3
				c11,10.5,20.8,11.3,33.2,2.1c5.9-4.3,11.7-8.8,17.2-13.6c8.8-7.8,14.2-17.6,15.7-29.3C1341.8,267.2,1344.6,261.8,1346.1,257.1z"
				/>
			<path d="M1148.4,72.3c0-5.1,0.5-10.3-0.1-15.3c-0.7-6-3.2-7-8.7-4.7c-4.1,1.7-7.7,4-10.8,7.3c-6.7,6.9-15.8,10.5-22.9,16.9
				c-7.7,6.9-17.3,11.3-24.6,18.7c-2.1,2.1-4.6,4.2-7.7,1.9c-3.3-2.3-2.8-5.6-1.5-8.9s3.1-6.4,5.9-8.5
				c14.3-10.8,25.2-24.8,37.8-37.2c5.2-5.1,10.7-9.9,17.4-13.1c4.4-2.1,8.9-3.2,13.8-2.2c8.7,1.8,14,6.8,15.5,15.5
				c1.8,10.3,2.9,20.6,4.4,30.9c0.7,4.5,1.8,9,3.8,13.1c2.5,5.3,6.1,6.5,11.1,3.6c7.9-4.5,15.2-9.7,22-16.1
				c6.7-6.3,13.8-13,23.8-14.6c10.3-1.7,17.2,2.8,19,13c0.8,4.7,1.6,9.3,1.3,14.2c-0.1,2.2,0.1,4.3,1.3,6.3c5,8.2,8.7,9,16.7,3.4
				c5.6-3.9,8.7-9.7,12.3-15.2c3.7-5.6,7.6-11.1,11.3-16.6c3.6-5.4,8.2-7.6,13-10.5c10.1-6,15.3-5.1,23.3,3.7
				c1.6,1.8,2.7,5.3,5.6,4.4c2.6-0.9,3-4.3,3.8-7c2.3-7.6,0.8-14.8-2.1-21.9c-1.2-3-10.3-6.8-13.3-5.6c-3.2,1.3-6.4,2.8-9.5,4.3
				c-11.8,5.9-23.6,11.8-35.8,16.7c-6.7,2.7-25-2.3-30.4-8.3c-4.1-4.5-6.7-10-9.9-15.1c-6.2-9.8-10.7-10.7-20-3.6
				c-6.1,4.7-11.7,10-17.5,15c-2.1,1.8-4,3.8-6.2,5.3c-2.2,1.6-4.5,5.2-7.4,2.6c-2.8-2.5-1-6.2,0.5-9.1c1.3-2.6,3.4-4.8,5.6-6.7
				c9.2-7.5,18.3-15.1,27.5-22.6c3.3-2.7,7-4.7,11.1-5.7c6.8-1.7,11.7,0.3,15.3,6.2c2.9,4.9,6.1,9.6,9.9,13.8
				c8.3,9.1,18.3,10.6,27.8,3.5c6.9-5.2,14.5-9.7,22.3-12.6c12.8-4.7,26.4-7.8,38.8,2.5c3.6,3,8.3,4,12.1,7.1
				c10.3,8.3,11.5,18.9,9.7,30.7c-0.3,1.8-0.8,3.6-1.3,5.3c-5.1,17.7-20.3,26.1-38.4,21.4c-11.2-2.9-18.2-0.5-23.9,9.6
				c-4.6,8.1-10.6,15.3-16,22.7c-7.7,10.5-17.8,19.3-32.8,15.7c-7.1-1.7-12.1-5.5-15.8-12.8c-4.5-9.2-3.4-18.5-4.3-27.9
				c-0.3-3.2-1.1-2.9-3.2-2.1c-4.3,1.8-8,4.5-11.4,7.6c-4.6,4.2-9.4,8.2-13.6,12.7c-7.6,8.2-17.6,11.4-27.7,14.3
				c-6.9,2-11.6-2.7-14.9-7.8C1153,99,1145.9,87.1,1148.4,72.3z"/>
			<path d="M1302,394.2c-15.2,1.5-28.3-2.9-39.8-12.2c-2.3-1.8-4.8-3.4-7.2-5c-8.5-5.5-18.2-2.3-22.3,7.2c-0.8,1.9-0.8,4.8-4,4.3
				c-2.7-0.4-3.9-2.5-4.7-4.8c-1.5-4.6,0.9-8.6,2.4-12.6c3.8-9.9,9.9-17.2,21.4-17.6c5.7-0.2,11.2,1.5,16.6,3.2
				c9.6,3,18.9,6.6,28.8,8.7c8.5,1.8,16.3,0.3,23.9-3.4c7.9-3.9,14.8-9.3,22.2-14c2.2-1.4,4.2-3,6.8-3.4c3.3-0.6,6.2,0.8,5.3,4.2
				c-2.7,10.5-3.9,22.2-12.2,29.9C1328.9,388.2,1317.1,396.2,1302,394.2z"/>
			<path d="M1074.8,36.1c0.4-4.5,1.8-8.2,4.2-11.5c8.7-11.9,19.9-20.5,34.3-23.7c5.2-1.2,11.3-0.4,16.4,2.2c4.1,2.1,4.7,6.1,1.5,9.4
				c-3.6,3.6-7.9,6.4-12.5,8.8c-12.5,6.7-26.4,10.9-36.6,21.5c-1.1,1.1-2.7,1.6-4,0.7C1075.5,41.6,1075.8,38.3,1074.8,36.1z"/>
			<path d="M1078.8,402c-14.4,0-24-13.2-17.8-27.5c3.3-7.5,7-7.4,13-2.2c7.9,6.9,15.2,14.8,25.4,18.7c1.1,0.4,2.8,0.3,3.1,1.9
				c0.3,1.8-1.3,2.5-2.5,3.3C1094.4,400.2,1088,402.1,1078.8,402z"/>
		</g>
	</g>
</g>
</svg>
