<?xml version="1.0" encoding="utf-8"?>
<!-- Generator: Adobe Illustrator 23.0.0, SVG Export Plug-In . SVG Version: 6.00 Build 0)  -->
<svg version="1.1" id="Layer_1" xmlns="http://www.w3.org/2000/svg" xmlns:xlink="http://www.w3.org/1999/xlink" x="0px" y="0px"
	 viewBox="0 0 565.2 112.65" style="enable-background:new 0 0 565.2 112.65;" xml:space="preserve">
<style type="text/css">
	.st0{fill:#141414;}
</style>
<g>
	<path class="st0" d="M40.5,73.2L29.4,85.05v26.25H0V6.3h29.4v43.65L70.05,6.3h32.7l-42.9,46.5L105,111.3H70.5L40.5,73.2z"/>
	<path class="st0" d="M188.77,37.65c6.15,6,9.23,15.05,9.23,27.15v46.5h-28.5V69.45c0-11.1-4.45-16.65-13.35-16.65
		c-4.9,0-8.83,1.6-11.77,4.8c-2.95,3.2-4.43,8-4.43,14.4v39.3h-28.5V0h28.5v37.5c3.1-2.9,6.75-5.1,10.95-6.6
		c4.2-1.5,8.7-2.25,13.5-2.25C174.5,28.65,182.63,31.65,188.77,37.65z"/>
	<path class="st0" d="M234.3,108.55c-7-2.73-12.48-6.53-16.43-11.38c-3.95-4.86-5.92-10.36-5.92-16.51c0-6.07,1.97-11.54,5.92-16.39
		c3.95-4.86,9.4-8.63,16.35-11.33c6.95-2.69,14.82-4.04,23.63-4.04c8.8,0,16.7,1.35,23.7,4.04c7,2.69,12.45,6.45,16.35,11.27
		c3.9,4.82,5.85,10.3,5.85,16.45c0,6.15-1.95,11.65-5.85,16.51c-3.9,4.86-9.35,8.65-16.35,11.38c-7,2.73-14.9,4.1-23.7,4.1
		C249.15,112.65,241.3,111.28,234.3,108.55z M270.15,91.53c3.2-2.62,4.8-6.24,4.8-10.87c0-4.55-1.6-8.12-4.8-10.7
		c-3.2-2.58-7.3-3.87-12.3-3.87c-5,0-9.1,1.29-12.3,3.87c-3.2,2.58-4.8,6.15-4.8,10.7c0,4.63,1.6,8.25,4.8,10.87
		c3.2,2.62,7.3,3.93,12.3,3.93C262.85,95.46,266.95,94.15,270.15,91.53z"/>
	<path class="st0" d="M399.6,77.85h-59.1c1.2,4.2,3.52,7.43,6.97,9.68s7.77,3.38,12.98,3.38c3.9,0,7.27-0.55,10.13-1.65
		c2.85-1.1,5.72-2.9,8.63-5.4l15,15.6c-7.9,8.8-19.45,13.2-34.65,13.2c-9.5,0-17.85-1.8-25.05-5.4c-7.2-3.6-12.78-8.6-16.73-15
		c-3.95-6.4-5.92-13.65-5.92-21.75c0-8,1.92-15.17,5.78-21.53c3.85-6.35,9.17-11.32,15.97-14.92c6.8-3.6,14.45-5.4,22.95-5.4
		c8.1,0,15.45,1.68,22.05,5.02c6.6,3.35,11.82,8.2,15.67,14.55c3.85,6.35,5.78,13.88,5.78,22.58C400.05,71,399.9,73.35,399.6,77.85z
		 M345.67,52.65c-2.95,2.5-4.83,5.9-5.63,10.2h33.3c-0.8-4.3-2.68-7.7-5.63-10.2c-2.95-2.5-6.63-3.75-11.02-3.75
		C352.29,48.9,348.62,50.15,345.67,52.65z"/>
	<path class="st0" d="M451.72,31.42c4.65-1.85,9.97-2.77,15.97-2.77V54.3c-2.6-0.3-4.75-0.45-6.45-0.45
		c-6.1,0-10.88,1.65-14.33,4.95s-5.17,8.35-5.17,15.15v37.35h-28.5V30h27.15v9.75C443.3,36.05,447.07,33.28,451.72,31.42z"/>
	<path class="st0" d="M565.2,30v81.3h-27.15v-8.7c-3,3.3-6.6,5.8-10.8,7.5s-8.65,2.55-13.35,2.55c-10.5,0-18.88-3.1-25.13-9.3
		c-6.25-6.2-9.38-15.5-9.38-27.9V30h28.5v40.8c0,6.1,1.15,10.55,3.45,13.35c2.3,2.8,5.65,4.2,10.05,4.2c4.5,0,8.18-1.57,11.03-4.72
		c2.85-3.15,4.28-7.97,4.28-14.48V30H565.2z"/>
	
		<ellipse transform="matrix(0.9887 -0.1502 0.1502 0.9887 -1.6692 34.9388)" class="st0" cx="230.42" cy="28.52" rx="8.61" ry="16.99"/>
	
		<ellipse transform="matrix(0.1502 -0.9887 0.9887 0.1502 213.0029 304.8497)" class="st0" cx="283.84" cy="28.52" rx="16.99" ry="8.61"/>
</g>
</svg>
