<?xml version="1.0" encoding="utf-8"?>
<!-- Generator: Adobe Illustrator 23.0.0, SVG Export Plug-In . SVG Version: 6.00 Build 0)  -->
<svg version="1.1" id="Layer_1" xmlns="http://www.w3.org/2000/svg" xmlns:xlink="http://www.w3.org/1999/xlink" x="0px" y="0px"
	 viewBox="0 0 565.2 112.7" style="enable-background:new 0 0 565.2 112.7;" xml:space="preserve">
<style type="text/css">
	.st0{fill:#FFFFFF;}
</style>
<g>
	<path class="st0" d="M40.5,73.2L29.4,85.1v26.3H0V6.3h29.4V50L70.1,6.3h32.7L59.8,52.8l45.2,58.5H70.5L40.5,73.2z"/>
	<path class="st0" d="M188.8,37.7c6.1,6,9.2,15,9.2,27.2v46.5h-28.5V69.4c0-11.1-4.4-16.7-13.4-16.7c-4.9,0-8.8,1.6-11.8,4.8
		c-2.9,3.2-4.4,8-4.4,14.4v39.3h-28.5V0h28.5v37.5c3.1-2.9,6.8-5.1,10.9-6.6c4.2-1.5,8.7-2.3,13.5-2.3
		C174.5,28.6,182.6,31.6,188.8,37.7z"/>
	<path class="st0" d="M234.3,108.6c-7-2.7-12.5-6.5-16.4-11.4c-3.9-4.9-5.9-10.4-5.9-16.5c0-6.1,2-11.5,5.9-16.4
		c3.9-4.9,9.4-8.6,16.4-11.3c6.9-2.7,14.8-4,23.6-4c8.8,0,16.7,1.3,23.7,4c7,2.7,12.5,6.5,16.4,11.3s5.9,10.3,5.9,16.4
		c0,6.2-2,11.7-5.9,16.5s-9.4,8.7-16.4,11.4c-7,2.7-14.9,4.1-23.7,4.1C249.1,112.7,241.3,111.3,234.3,108.6z M270.1,91.5
		c3.2-2.6,4.8-6.2,4.8-10.9c0-4.6-1.6-8.1-4.8-10.7c-3.2-2.6-7.3-3.9-12.3-3.9s-9.1,1.3-12.3,3.9s-4.8,6.2-4.8,10.7
		c0,4.6,1.6,8.3,4.8,10.9s7.3,3.9,12.3,3.9S267,94.2,270.1,91.5z"/>
	<path class="st0" d="M399.6,77.8h-59.1c1.2,4.2,3.5,7.4,7,9.7s7.8,3.4,13,3.4c3.9,0,7.3-0.6,10.1-1.7c2.9-1.1,5.7-2.9,8.6-5.4
		l15,15.6c-7.9,8.8-19.5,13.2-34.6,13.2c-9.5,0-17.9-1.8-25-5.4c-7.2-3.6-12.8-8.6-16.7-15s-5.9-13.7-5.9-21.8
		c0-8,1.9-15.2,5.8-21.5c3.9-6.3,9.2-11.3,16-14.9s14.5-5.4,23-5.4c8.1,0,15.5,1.7,22,5c6.6,3.3,11.8,8.2,15.7,14.5
		s5.8,13.9,5.8,22.6C400,71,399.9,73.3,399.6,77.8z M345.7,52.7c-3,2.5-4.8,5.9-5.6,10.2h33.3c-0.8-4.3-2.7-7.7-5.6-10.2
		s-6.6-3.8-11-3.8C352.3,48.9,348.6,50.2,345.7,52.7z"/>
	<path class="st0" d="M451.7,31.4c4.6-1.9,10-2.8,16-2.8v25.6c-2.6-0.3-4.8-0.5-6.5-0.5c-6.1,0-10.9,1.7-14.3,5s-5.2,8.4-5.2,15.1
		v37.3h-28.5V30h27.1v9.8C443.3,36,447.1,33.3,451.7,31.4z"/>
	<path class="st0" d="M565.2,30v81.3H538v-8.7c-3,3.3-6.6,5.8-10.8,7.5s-8.7,2.6-13.3,2.6c-10.5,0-18.9-3.1-25.1-9.3
		c-6.3-6.2-9.4-15.5-9.4-27.9V30h28.5v40.8c0,6.1,1.1,10.6,3.5,13.3c2.3,2.8,5.7,4.2,10,4.2c4.5,0,8.2-1.6,11-4.7
		c2.8-3.2,4.3-8,4.3-14.5V30H565.2z"/>
	<ellipse transform="matrix(0.9887 -0.1502 0.1502 0.9887 -1.6708 34.9328)" class="st0" cx="230.4" cy="28.5" rx="8.6" ry="17"/>
	<ellipse transform="matrix(0.1502 -0.9887 0.9887 0.1502 213.026 304.8339)" class="st0" cx="283.8" cy="28.5" rx="17" ry="8.6"/>
</g>
</svg>
