<?xml version="1.0" encoding="utf-8"?>
<!-- Generator: Adobe Illustrator 23.0.0, SVG Export Plug-In . SVG Version: 6.00 Build 0)  -->
<svg version="1.1" id="Capa_1" xmlns="http://www.w3.org/2000/svg" xmlns:xlink="http://www.w3.org/1999/xlink" x="0px" y="0px"
	 viewBox="0 0 512 512" style="enable-background:new 0 0 512 512;" xml:space="preserve">
<style type="text/css">
	.st0{fill:#141414;}
</style>
<g>
	<path class="st0" d="M32.8,91.9h446.4c18.1,0,32.8-14.7,32.8-32.8s-14.7-32.8-32.8-32.8H32.8C14.7,26.3,0,41,0,59.1
		S14.7,91.9,32.8,91.9z"/>
	<path class="st0" d="M216.6,288.8h262.6c18.1,0,32.8-14.7,32.8-32.8s-14.7-32.8-32.8-32.8H216.6c-18.1,0-32.8,14.7-32.8,32.8
		S198.5,288.8,216.6,288.8z"/>
</g>
<path class="st0" d="M32.8,288.8h52.5c18.1,0,32.8-14.7,32.8-32.8s-14.7-32.8-32.8-32.8H32.8C14.7,223.2,0,237.9,0,256
	S14.7,288.8,32.8,288.8z"/>
<path class="st0" d="M32.8,485.7h446.4c18.1,0,32.8-14.6,32.8-32.8s-14.7-32.8-32.8-32.8H32.8C14.7,420.1,0,434.8,0,452.9
	C0,471.1,14.7,485.7,32.8,485.7z"/>
</svg>
